<?xml version="1.0" encoding="UTF-8" standalone="no"?>
<svg
   xmlns:dc="http://purl.org/dc/elements/1.1/"
   xmlns:cc="http://creativecommons.org/ns#"
   xmlns:rdf="http://www.w3.org/1999/02/22-rdf-syntax-ns#"
   xmlns:svg="http://www.w3.org/2000/svg"
   xmlns="http://www.w3.org/2000/svg"
   id="svg8"
   version="1.1"
   viewBox="0 0 210 297"
   height="297mm"
   width="210mm">
  <defs
     id="defs2">
    <rect
       id="rect853"
       height="58.964286"
       width="60.47619"
       y="111.125"
       x="71.815476" />
  </defs>
  <metadata
     id="metadata5">
    <rdf:RDF>
      <cc:Work
         rdf:about="">
        <dc:format>image/svg+xml</dc:format>
        <dc:type
           rdf:resource="http://purl.org/dc/dcmitype/StillImage" />
        <dc:title></dc:title>
      </cc:Work>
    </rdf:RDF>
  </metadata>
  <g
     id="layer1">
    <path
       transform="scale(0.26458333)"
       d="M 49.216797 244.11719 C -5.8972595 362.06266 212.20313 884.11719 212.20312 884.11719 L 559.63086 884.11719 C 625.8297 780.12027 779.2245 359.48032 756.93164 247.92773 L 49.216797 244.11719 z M 252.07422 413.64062 L 260.85352 413.69336 L 314.40039 697.15625 C 294.21051 640.69933 232.55686 460.26921 252.07422 413.64062 z M 282.92383 413.82617 L 468.79883 414.94336 L 309.18555 559.45703 L 282.92383 413.82617 z M 490.61133 415.07422 L 550.17773 415.43164 C 557.693 457.41443 517.8149 592.43523 487.29297 669.77344 L 375.52539 529.63281 L 499.61133 418.16992 L 490.61133 415.07422 z M 361.89062 554.02148 L 475.98828 696.71289 C 472.74614 703.85724 469.73733 709.9163 467.07031 714.59375 L 339.44922 714.59375 L 314.90039 585.20508 L 361.89062 554.02148 z "
       style="fill:#e6e6e6;stroke-width:3.12277"
       id="rect833" />
    <text
       style="fill:black;fill-opacity:1;line-height:1.25;stroke:none;font-family:sans-serif;font-style:normal;font-weight:normal;font-size:10.58333333000000032px;shape-inside:url(#rect853);white-space:pre;"
       id="text851"
       xml:space="preserve" />
    <g
       transform="translate(-46.113095,-136.82738)"
       style="font-style:normal;font-weight:normal;font-size:89.1142px;line-height:1.25;font-family:sans-serif;fill:#000000;fill-opacity:1;stroke:none;stroke-width:2.22786"
       id="text859"
       aria-label="K" />
  </g>
</svg>
